<svg xmlns="http://www.w3.org/2000/svg" width="512" height="512"><svg xmlns="http://www.w3.org/2000/svg" xmlns:svg="http://www.w3.org/2000/svg" width="512" height="512" viewBox="0 0 512 512"><rect width="508.031" height="508.031" x="1.984" y="1.984" rx="256" ry="256" style="fill:#c10007;stroke:#c10007;stroke-width:3.96899"/><g style="stroke-width:.99983393;stroke-dasharray:none"><path d="M450.8 300.2h-47.6v5.1h30.2v12.2h-40.7l-.1-34.6 58.1.1.2-17.4h-92.4v51.8l-23.9.1.1-51.9h-59.8l.2 17.3h25.6l-.3 51.9H567v-17.3h-58.3v-51.9h-34.4v64h-23.5z" class="st0" style="fill:#fff;fill-opacity:1;fill-rule:evenodd;stroke-width:.99983393;stroke-dasharray:none" transform="matrix(1.64327 0 0 1.64327 -435.736 -214.96)"/><path d="M300.7 254.1h34.1l.1-17.4h-34.3z" class="st3" style="fill:none;stroke:#fff;stroke-width:2.4341666;stroke-dasharray:none;stroke-opacity:1" transform="matrix(1.64327 0 0 1.64327 -435.736 -214.96)"/></g></svg></svg>